<svg width="52" height="52" viewBox="0 0 52 52" fill="none" xmlns="http://www.w3.org/2000/svg"><rect width="52" height="52" rx="26" fill="rgb(49, 49, 47)"></rect><path d="M26.0001 15.6001C22.4657 15.6001 19.6001 18.4657 19.6001 22.0001C19.6001 26.8001 25.2001 28.4001 25.2001 31.6001C25.2001 32.0417 25.5585 32.4001 26.0001 32.4001C26.4417 32.4001 26.8001 32.0417 26.8001 31.6001C26.8001 28.4001 32.4001 26.8001 32.4001 22.0001C32.4001 18.4657 29.5345 15.6001 26.0001 15.6001ZM26.0001 23.6001C25.1161 23.6001 24.4001 22.8841 24.4001 22.0001C24.4001 21.1161 25.1161 20.4001 26.0001 20.4001C26.8841 20.4001 27.6001 21.1161 27.6001 22.0001C27.6001 22.8841 26.8841 23.6001 26.0001 23.6001Z" fill="rgb(243, 244, 245)"></path><path d="M36.3496 34.5185L33.9496 28.1185C33.832 27.8073 33.5336 27.6001 33.2 27.6001H31.6192C31.1808 28.0897 30.7272 28.5377 30.3008 28.9585C30.2168 29.0401 30.1368 29.1201 30.056 29.2001H32.6456L34.4456 34.0001H17.5544L19.3544 29.2001H21.944C21.8632 29.1201 21.7832 29.0401 21.7 28.9585C21.2728 28.5377 20.82 28.0897 20.3816 27.6001H18.8C18.4664 27.6001 18.168 27.8073 18.0504 28.1185L15.6504 34.5185C15.5584 34.7649 15.5928 35.0393 15.7416 35.2553C15.892 35.4713 16.1376 35.6001 16.4 35.6001H35.6C35.8624 35.6001 36.108 35.4713 36.2576 35.2553C36.4072 35.0401 36.4416 34.7649 36.3496 34.5185Z" fill="rgb(243, 244, 245)"></path></svg>