<svg width="30" height="30" viewBox="0 0 30 30" fill="none" xmlns="http://www.w3.org/2000/svg"><path d="M3 16H27C27.552 16 28 15.552 28 15V13C28 12.448 27.552 12 27 12H3C2.448 12 2 12.448 2 13V15C2 15.552 2.448 16 3 16Z" fill="rgb(243, 244, 245)"></path><path d="M3 14L4.721 24.329C4.882 25.293 5.717 26 6.694 26H23.305C24.283 26 25.117 25.293 25.278 24.329L27 14H3ZM16 22C16 22.552 15.552 23 15 23C14.448 23 14 22.552 14 22V17C14 16.448 14.448 16 15 16C15.552 16 16 16.448 16 17V22ZM21 22C21 22.552 20.552 23 20 23C19.448 23 19 22.552 19 22V17C19 16.448 19.448 16 20 16C20.552 16 21 16.448 21 17V22ZM11 22C11 22.552 10.552 23 10 23C9.448 23 9 22.552 9 22V17C9 16.448 9.448 16 10 16C10.552 16 11 16.448 11 17V22Z" fill="rgb(243, 244, 245)"></path><path d="M17.3477 4.99164L24 12H21.1668L15.7826 6.3278C15.3781 5.90039 14.6229 5.90039 14.2174 6.3278L8.83324 12H6L12.6523 4.99164C13.2495 4.3615 14.1047 4 15 4C15.8953 4 16.7505 4.3625 17.3477 4.99164Z" fill="rgb(243, 244, 245)"></path></svg>