<svg width="52" height="52" viewBox="0 0 52 52" fill="none" xmlns="http://www.w3.org/2000/svg"><rect width="52" height="52" rx="26" fill="rgb(49, 49, 47)"></rect><path d="M25.9999 16.3999C20.6983 16.3999 16.3999 20.6983 16.3999 25.9999C16.3999 31.3015 20.6983 35.5999 25.9999 35.5999C31.3015 35.5999 35.5999 31.3015 35.5999 25.9999C35.5999 20.6983 31.3015 16.3999 25.9999 16.3999ZM26.7999 26.7999H20.3959C19.9559 26.7999 19.5999 26.4439 19.5999 26.0039V25.9951C19.5999 25.5559 19.9559 25.1999 20.3959 25.1999H25.1999V18.7959C25.1999 18.3559 25.5559 17.9999 25.9959 17.9999H26.0047C26.4439 17.9999 26.7999 18.3559 26.7999 18.7959V26.7999Z" fill="rgb(243, 244, 245)"></path></svg>