<svg width="52" height="52" viewBox="0 0 52 52" fill="none" xmlns="http://www.w3.org/2000/svg"><rect width="52" height="52" rx="26" fill="rgb(49, 49, 47)"></rect><path d="M17.2001 16.3999H21.0945C21.6569 16.3999 22.1777 16.6951 22.4665 17.1767L24.4001 20.3999H15.6001V17.9999C15.6001 17.1159 16.3161 16.3999 17.2001 16.3999Z" fill="rgb(243, 244, 245)"></path><path d="M34.8001 18H15.6001V32.4C15.6001 33.284 16.3161 34 17.2001 34H18.8001V33.6C18.8001 32.9376 19.3377 32.4 20.0001 32.4C20.6625 32.4 21.2001 32.9376 21.2001 33.6V34H30.8001V33.6C30.8001 32.9376 31.3377 32.4 32.0001 32.4C32.6625 32.4 33.2001 32.9376 33.2001 33.6V34H34.8001C35.6841 34 36.4001 33.284 36.4001 32.4V19.6C36.4001 18.716 35.6841 18 34.8001 18ZM18.8001 29.2C19.2401 27.4744 20.7009 27.9512 21.0001 26.9776V26.2552C20.8497 26.1752 20.4209 25.6216 20.3761 25.1896C20.2585 25.18 20.0729 25.0624 20.0185 24.5992C19.9889 24.3504 20.1057 24.2104 20.1769 24.1664C20.1769 24.1664 20.0009 23.7656 20.0009 23.3664C20.0001 22.1824 20.5865 21.2 22.0001 21.2C22.7633 21.2 23.0001 21.7416 23.0001 21.7416C23.6825 21.7416 24.0001 22.4896 24.0001 23.3664C24.0001 23.804 23.8241 24.1664 23.8241 24.1664C23.8945 24.2104 24.0113 24.3504 23.9825 24.5992C23.9281 25.0624 23.7425 25.18 23.6249 25.1896C23.5801 25.6216 23.1513 26.1752 23.0009 26.2552V26.9776C23.3001 27.9512 24.7609 27.4744 25.2009 29.2H18.8001ZM32.4001 28.4H27.6001C27.1585 28.4 26.8001 28.0416 26.8001 27.6C26.8001 27.1584 27.1585 26.8 27.6001 26.8H32.4001C32.8417 26.8 33.2001 27.1584 33.2001 27.6C33.2001 28.0416 32.8417 28.4 32.4001 28.4ZM32.4001 25.2H27.6001C27.1585 25.2 26.8001 24.8416 26.8001 24.4C26.8001 23.9584 27.1585 23.6 27.6001 23.6H32.4001C32.8417 23.6 33.2001 23.9584 33.2001 24.4C33.2001 24.8416 32.8417 25.2 32.4001 25.2Z" fill="rgb(243, 244, 245)"></path></svg>