<svg width="24" height="24" fill="none" xmlns="http://www.w3.org/2000/svg" class="Home_blockItemIcon__THS9b" color="rgb(243, 244, 245)"><path d="M12 2.4a2.412 2.412 0 0 0-2.4 2.4c0 .377.098.73.256 1.048C5.588 6.824 2.4 10.636 2.4 15.2v1.6h19.2v-1.6c0-4.564-3.188-8.376-7.456-9.352.158-.319.256-.671.256-1.048 0-1.316-1.084-2.4-2.4-2.4ZM12 4c.451 0 .8.349.8.8 0 .451-.349.8-.8.8a.788.788 0 0 1-.8-.8c0-.451.349-.8.8-.8ZM2.394 18.4a.8.8 0 1 0 0 1.6h19.2a.8.8 0 1 0 0-1.6h-19.2Z" fill="currentColor"></path></svg>