<svg width="26" height="26" viewBox="0 0 26 26" fill="none" xmlns="http://www.w3.org/2000/svg"><rect width="26" height="26" rx="13" fill="rgb(32, 32, 34)"></rect><path d="M13 5C8.582 5 5 8.582 5 13C5 17.418 8.582 21 13 21C17.418 21 21 17.418 21 13C21 8.582 17.418 5 13 5ZM15.7873 10.3333H14.6347C13.9173 10.3333 13.6667 10.712 13.6667 11.4787V12.3333H15.7693L15.484 14.3333H13.6667V19.6333C13.4473 19.6547 13.2253 19.6667 13 19.6667C12.5433 19.6667 12.0973 19.62 11.6667 19.5327V14.3333H9.66667V12.3333H11.6667V11.2593C11.6667 9.226 12.6573 8.33333 14.3473 8.33333C15.1567 8.33333 15.5847 8.39333 15.7873 8.42067V10.3333Z" fill="rgb(243, 244, 245)"></path></svg>