<svg width="26" height="26" viewBox="0 0 26 26" fill="none" xmlns="http://www.w3.org/2000/svg"><rect width="26" height="26" rx="13" fill="rgb(32, 32, 34)"></rect><path d="M13 11C12.4696 11 11.9609 11.2107 11.5858 11.5858C11.2107 11.9609 11 12.4696 11 13C11 13.5304 11.2107 14.0391 11.5858 14.4142C11.9609 14.7893 12.4696 15 13 15C13.5304 15 14.0391 14.7893 14.4142 14.4142C14.7893 14.0391 15 13.5304 15 13C15 12.4696 14.7893 11.9609 14.4142 11.5858C14.0391 11.2107 13.5304 11 13 11Z" fill="rgb(243, 244, 245)"></path><path d="M15.9161 6H10.0827C7.83167 6 6 7.83225 6 10.0839V15.9172C6 18.1683 7.83225 20 10.0839 20H15.9172C18.1683 20 20 18.1677 20 15.9161V10.0827C20 7.83167 18.1677 6 15.9161 6ZM13 16.5C11.0697 16.5 9.5 14.9303 9.5 13C9.5 11.0697 11.0697 9.5 13 9.5C14.9303 9.5 16.5 11.0697 16.5 13C16.5 14.9303 14.9303 16.5 13 16.5ZM17.0833 9.5C16.7613 9.5 16.5 9.23867 16.5 8.91667C16.5 8.59467 16.7613 8.33333 17.0833 8.33333C17.4053 8.33333 17.6667 8.59467 17.6667 8.91667C17.6667 9.23867 17.4053 9.5 17.0833 9.5Z" fill="rgb(243, 244, 245)"></path></svg>