<svg viewBox="0 0 24 24" fill="none" xmlns="http://www.w3.org/2000/svg" id="checkmark"><rect width="24" height="24" rx="12" fill="rgb(243, 244, 245)"></rect><rect x="5" y="10" width="14" height="4" fill="rgb(32, 32, 34)"></rect><path d="M12 2.3999C6.69842 2.3999 2.40002 6.6983 2.40002 11.9999C2.40002 17.3015 6.69842 21.5999 12 21.5999C17.3016 21.5999 21.6 17.3015 21.6 11.9999C21.6 6.6983 17.3016 2.3999 12 2.3999ZM16.8 12.7999H7.20002C6.75842 12.7999 6.40002 12.4423 6.40002 11.9999C6.40002 11.5575 6.75842 11.1999 7.20002 11.1999H16.8C17.2416 11.1999 17.6 11.5575 17.6 11.9999C17.6 12.4423 17.2416 12.7999 16.8 12.7999Z" fill="rgb(243, 244, 245)"></path></svg>